HIERARCHY
ROOT Pelvis
{
	OFFSET 0.000000 0.000000 0.000000
	CHANNELS 6 Xposition Yposition Zposition Xrotation Yrotation Zrotation
	JOINT LeftUpLeg_virtual
	{
		OFFSET 0.000000 0.000000 0.000000
		CHANNELS 3 Xrotation Yrotation Zrotation
		JOINT LeftUpLeg
		{
			OFFSET 18.735201 -5.666702 -4.541200
			CHANNELS 3 Xrotation Yrotation Zrotation
			JOINT LeftLeg
			{
				OFFSET -0.021200 -31.938179 0.493100
				CHANNELS 3 Xrotation Yrotation Zrotation
				JOINT LeftFoot
				{
					OFFSET 0.021200 -31.938179 -4.336299
					CHANNELS 3 Xrotation Yrotation Zrotation
					JOINT LeftToeBase
					{
						OFFSET 0.943001 -26.722000 15.023500
						CHANNELS 3 Xrotation Yrotation Zrotation
						End Site
						{
							OFFSET 0 0 0
						}
					}
				}
			}
		}
	}
	JOINT RightUpLeg_virtual
	{
		OFFSET 0.000000 0.000000 0.000000
		CHANNELS 3 Xrotation Yrotation Zrotation
		JOINT RightUpLeg
		{
			OFFSET -18.735201 -5.666702 -4.541200
			CHANNELS 3 Xrotation Yrotation Zrotation
			JOINT RightLeg
			{
				OFFSET 0.018946 -31.938133 0.493100
				CHANNELS 3 Xrotation Yrotation Zrotation
				JOINT RightFoot
				{
					OFFSET -0.018946 -31.938126 -4.336299
					CHANNELS 3 Xrotation Yrotation Zrotation
					JOINT RightToeBase
					{
						OFFSET -0.943001 -26.722004 15.023500
						CHANNELS 3 Xrotation Yrotation Zrotation
						End Site
						{
							OFFSET 0 0 0
						}
					}
				}
			}
		}
	}
	JOINT Hips_virtual
	{
		OFFSET 0.000000 0.000000 0.000000
		CHANNELS 3 Xrotation Yrotation Zrotation
		JOINT Hips
		{
			OFFSET -0.000000 -0.000000 -0.000000
			CHANNELS 3 Xrotation Yrotation Zrotation
			JOINT Spine
			{
				OFFSET 0.000000 10.199997 -0.299500
				CHANNELS 3 Xrotation Yrotation Zrotation
				JOINT Spine1
				{
					OFFSET 0.000000 11.900002 -1.516600
					CHANNELS 3 Xrotation Yrotation Zrotation
					JOINT Spine2
					{
						OFFSET 0.000000 13.600006 -2.842500
						CHANNELS 3 Xrotation Yrotation Zrotation
						JOINT Neck_virtual
						{
							OFFSET 0.000000 0.000000 0.000000
							CHANNELS 3 Xrotation Yrotation Zrotation
							JOINT Neck
							{
								OFFSET 0.000000 9.624100 -2.890100
								CHANNELS 3 Xrotation Yrotation Zrotation
								JOINT Head
								{
									OFFSET 0.000000 14.068802 -1.351900
									CHANNELS 3 Xrotation Yrotation Zrotation
									End Site
									{
										OFFSET 0 0 0
									}
								}
							}
						}
						JOINT LeftShoulder_virtual
						{
							OFFSET 0.000000 0.000000 0.000000
							CHANNELS 3 Xrotation Yrotation Zrotation
							JOINT LeftShoulder
							{
								OFFSET 15.263000 10.923401 -0.547700
								CHANNELS 3 Xrotation Yrotation Zrotation
								JOINT LeftArm
								{
									OFFSET 25.438599 -2.830597 -13.032500
									CHANNELS 3 Xrotation Yrotation Zrotation
									JOINT LeftForeArm
									{
										OFFSET 29.960503 0.000000 0.000000
										CHANNELS 3 Xrotation Yrotation Zrotation
										JOINT LeftHand
										{
											OFFSET 27.849251 0.000000 0.000000
											CHANNELS 3 Xrotation Yrotation Zrotation
											End Site
											{
												OFFSET 0 0 0
											}
										}
									}
								}
							}
						}
						JOINT RightShoulder_virtual
						{
							OFFSET 0.000000 0.000000 0.000000
							CHANNELS 3 Xrotation Yrotation Zrotation
							JOINT RightShoulder
							{
								OFFSET -15.263000 10.923401 -0.547700
								CHANNELS 3 Xrotation Yrotation Zrotation
								JOINT RightArm
								{
									OFFSET -25.438599 -2.830597 -13.032500
									CHANNELS 3 Xrotation Yrotation Zrotation
									JOINT RightForeArm
									{
										OFFSET -29.960503 0.000000 0.000000
										CHANNELS 3 Xrotation Yrotation Zrotation
										JOINT RightHand
										{
											OFFSET -27.849251 0.000000 0.000000
											CHANNELS 3 Xrotation Yrotation Zrotation
											End Site
											{
												OFFSET 0 0 0
											}
										}
									}
								}
							}
						}
					}
				}
			}
		}
	}
}
MOTION
Frames: 11
Frame Time: 0.03333333
1.549191 57.072060 -14.738873 0.000000 0.000000 0.000000 29.709762 -2.672560 2.305200 -112.329954 -12.036741 22.842159 121.229847 -4.612960 5.062306 -12.203461 -17.146620 -5.842260 0.000000 0.000000 0.000000 30.654640 -2.950112 2.138557 -114.613935 -5.519756 -21.540067 131.278244 13.172360 -7.454615 -23.451777 -0.829686 -19.919188 0.000000 0.000000 0.000000 31.712702 -2.825372 2.684778 -0.591831 0.705684 -0.648949 13.119227 1.936326 -0.210940 23.955056 1.308435 -5.745797 0.000000 0.000000 0.000000 23.249274 0.909789 -5.240815 -5.704245 0.188440 0.310773 0.000000 0.000000 0.000000 23.568777 0.892349 -5.899131 0.827191 -5.824929 3.205172 -21.814277 -29.695210 -25.892566 -172.859684 -85.121588 -173.024415 0.000000 0.000000 0.000000 23.343018 1.563265 -4.977502 7.360161 29.280860 6.528089 -30.152618 9.444903 24.584658 6.679534 73.214574 -19.014770 0.000000 0.000000 0.000000 
1.498921 53.860130 -14.807133 0.000000 0.000000 0.000000 33.381627 -0.385563 2.639485 -110.434091 -14.663991 26.789522 127.902792 -5.119378 6.205151 -25.775821 -17.954081 -14.639979 0.000000 0.000000 0.000000 33.585939 0.153420 2.365363 -123.060092 0.979274 -19.099046 136.646855 8.967245 -5.923268 -17.221511 -2.236729 -16.038988 0.000000 0.000000 0.000000 34.581869 0.584960 2.547901 -0.845853 0.470301 -0.402099 12.403229 1.624182 -0.363775 22.126582 1.082423 -5.274457 0.000000 0.000000 0.000000 21.378663 0.741269 -4.783247 -4.714634 0.183756 0.183589 0.000000 0.000000 0.000000 21.514961 0.680380 -5.434242 0.492304 -5.427003 1.611483 -22.940488 -33.217573 -25.570193 175.116420 -85.110960 173.283825 0.000000 0.000000 0.000000 20.989298 1.328824 -4.570380 7.245146 30.396678 9.600573 -33.655638 16.062903 24.303317 3.000491 65.005519 -13.680096 0.000000 0.000000 0.000000 
1.386395 51.087650 -14.697037 0.000000 0.000000 0.000000 36.634987 2.417330 2.673990 -107.753392 -16.710288 30.977268 131.092408 -6.266076 6.997400 -35.544506 -17.155140 -23.894508 0.000000 0.000000 0.000000 36.177985 3.611669 2.106701 -129.378850 5.326651 -17.159395 141.030224 5.573816 -3.830698 -14.635190 -2.852734 -12.898844 0.000000 0.000000 0.000000 36.978948 3.898855 2.160166 -0.879344 0.120004 -0.310507 11.471403 1.326825 -0.485455 20.173751 0.943810 -4.620561 0.000000 0.000000 0.000000 19.349634 0.638702 -4.127282 -3.665294 0.162155 0.071236 0.000000 0.000000 0.000000 19.313354 0.591716 -4.787486 0.238724 -4.716188 -0.392362 -24.305421 -36.191328 -28.011688 145.591807 -87.386110 142.418761 0.000000 0.000000 0.000000 18.580322 1.148732 -3.984076 6.957446 30.661419 12.837580 -36.380128 20.855595 25.295092 1.451637 57.424856 -10.266435 0.000000 0.000000 0.000000 
1.218548 48.924076 -14.674564 0.000000 0.000000 0.000000 39.208076 5.261084 2.412234 -105.638711 -18.563940 34.486646 132.202191 -7.395273 7.154668 -40.298451 -15.890763 -30.536608 0.000000 0.000000 0.000000 38.414599 6.705449 1.575872 -133.568734 7.700465 -16.147452 144.600569 2.959531 -1.574834 -15.600376 -3.140259 -11.004473 0.000000 0.000000 0.000000 39.056268 6.673841 1.695186 -0.718094 -0.256611 -0.259894 10.428284 1.147670 -0.598627 18.442195 0.912409 -3.883611 0.000000 0.000000 0.000000 17.512503 0.613637 -3.358090 -2.698234 0.127195 -0.049180 0.000000 0.000000 0.000000 17.379592 0.605009 -3.980589 0.106823 -3.758064 -2.295868 -25.549055 -38.571844 -31.905159 46.127058 -86.624202 42.005018 0.000000 0.000000 0.000000 16.543657 1.039639 -3.275520 6.651356 30.241598 15.721531 -37.509930 23.350289 26.108873 0.921741 52.026009 -7.688388 0.000000 0.000000 0.000000 
0.926024 47.364105 -14.739780 0.000000 0.000000 0.000000 41.096688 7.651503 2.003207 -104.779699 -20.867872 36.100220 132.235741 -8.215538 6.996283 -41.253957 -15.332789 -33.935426 0.000000 0.000000 0.000000 40.467187 8.847224 1.035399 -135.846712 8.542342 -15.470606 146.931453 1.168583 0.039800 -16.928438 -3.074096 -9.294808 0.000000 0.000000 0.000000 40.780389 8.562561 1.321489 -0.267079 -0.594346 -0.365139 9.392333 1.127078 -0.697592 17.173886 0.940876 -3.189851 0.000000 0.000000 0.000000 16.097313 0.659384 -2.610140 -1.925393 0.059265 -0.182980 0.000000 0.000000 0.000000 15.972554 0.687943 -3.154571 0.061825 -2.656819 -3.843073 -26.478108 -40.432654 -35.767235 23.435554 -82.129418 18.793219 0.000000 0.000000 0.000000 15.176612 1.020157 -2.569685 6.461043 29.291577 17.763094 -37.170385 23.895316 26.040726 0.725762 49.307214 -5.500351 0.000000 0.000000 0.000000 
0.599888 46.451958 -15.016590 0.000000 0.000000 0.000000 42.176504 8.729724 1.870107 -105.302106 -23.379505 35.964190 132.006902 -8.629755 6.658834 -40.174343 -15.494742 -34.475356 0.000000 0.000000 0.000000 42.217567 9.695844 0.760416 -136.506808 8.211308 -14.991248 147.894824 0.233041 0.732610 -17.040625 -2.456463 -7.245815 0.000000 0.000000 0.000000 42.098414 9.233673 1.226454 0.178083 -0.834098 -0.401111 8.545432 1.267693 -0.775574 16.433768 1.050650 -2.690445 0.000000 0.000000 0.000000 15.199874 0.752763 -2.052440 -1.428983 -0.047326 -0.341108 0.000000 0.000000 0.000000 15.168599 0.831975 -2.463673 0.065421 -1.512546 -4.746587 -26.865759 -41.913265 -38.361006 17.413280 -78.675037 12.702792 0.000000 0.000000 0.000000 14.545987 1.098343 -2.016398 6.460120 28.052751 18.597130 -36.356325 23.286714 25.484503 0.652739 48.760714 -3.621584 0.000000 0.000000 0.000000 
0.339098 46.160393 -15.525490 0.000000 0.000000 0.000000 42.609401 8.237845 2.161548 -106.642578 -25.316680 35.243482 131.651541 -8.930145 5.968228 -38.231338 -16.014610 -33.373629 0.000000 0.000000 0.000000 43.162305 8.846789 1.025899 -135.978944 7.143460 -14.778164 147.671886 0.127055 0.875569 -16.190173 -1.636037 -5.270404 0.000000 0.000000 0.000000 42.780975 8.469869 1.579749 0.417838 -1.104313 -0.491305 7.948760 1.487251 -0.813346 16.150167 1.165749 -2.449686 0.000000 0.000000 0.000000 14.807200 0.873662 -1.769443 -1.239497 -0.179721 -0.499088 0.000000 0.000000 0.000000 14.921269 0.957166 -2.028484 0.091026 -0.448431 -5.053215 -26.878268 -42.920246 -39.504438 14.718791 -77.128832 10.355299 0.000000 0.000000 0.000000 14.584105 1.241606 -1.711867 6.605682 26.743553 18.445324 -35.879397 22.290672 25.378965 0.645808 49.452072 -2.230107 0.000000 0.000000 0.000000 
0.155756 46.274796 -15.969528 0.000000 0.000000 0.000000 42.564950 6.508442 2.761895 -108.171086 -26.286547 34.679531 130.978508 -9.320405 4.961776 -36.045371 -16.647048 -31.677372 0.000000 0.000000 0.000000 43.243830 6.763531 1.630448 -134.949757 5.814066 -14.942243 146.486425 0.639048 0.872487 -14.732966 -0.952400 -3.983678 0.000000 0.000000 0.000000 42.799062 6.716705 2.137551 0.506243 -1.458048 -0.696000 7.680552 1.656093 -0.752532 16.131273 1.223424 -2.448129 0.000000 0.000000 0.000000 14.776986 0.952554 -1.756364 -1.300470 -0.366044 -0.640776 0.000000 0.000000 0.000000 14.973392 1.035425 -1.918748 0.103628 0.423062 -5.244386 -26.897787 -43.548883 -39.834736 12.725214 -77.051186 9.081099 0.000000 0.000000 0.000000 15.052518 1.381525 -1.659429 6.813369 25.675890 17.820495 -36.011804 21.536454 26.078151 0.710744 50.644815 -1.361415 0.000000 0.000000 0.000000 
0.131231 46.665977 -16.331032 0.000000 0.000000 0.000000 42.181862 3.867108 3.446766 -109.178299 -26.478210 34.375775 130.084655 -9.609093 3.898135 -33.874036 -17.148580 -29.806806 0.000000 0.000000 0.000000 42.725910 4.165203 2.196739 -134.051560 4.634983 -15.440857 145.151232 1.391355 1.070658 -13.615071 -0.712645 -4.255283 0.000000 0.000000 0.000000 42.346172 4.258848 2.799123 0.396432 -1.564291 -0.910852 7.745074 1.707930 -0.560026 16.228101 1.227714 -2.608117 0.000000 0.000000 0.000000 14.928984 0.951436 -1.913283 -1.502450 -0.581420 -0.747021 0.000000 0.000000 0.000000 15.095165 1.043574 -2.060912 0.100434 1.053943 -5.651689 -27.129030 -43.937227 -39.954250 10.608104 -77.569762 7.934802 0.000000 0.000000 0.000000 15.604201 1.465097 -1.808074 7.044917 25.131498 17.133174 -36.298504 21.365875 27.188377 0.984890 51.738307 -1.009173 0.000000 0.000000 0.000000 
0.143657 47.052521 -16.337425 0.000000 0.000000 0.000000 41.735642 1.112980 3.867422 -108.964214 -26.275265 34.083139 129.028052 -9.614809 3.244461 -32.030633 -17.275087 -27.881324 0.000000 0.000000 0.000000 42.017784 1.608303 2.515346 -133.562929 3.861628 -15.723463 144.040603 2.056678 1.254887 -12.764902 -0.871656 -5.528889 0.000000 0.000000 0.000000 41.509631 1.684962 3.322015 0.424113 -1.374091 -1.310615 8.023885 1.625442 -0.221446 16.280751 1.143446 -2.822703 0.000000 0.000000 0.000000 15.050571 0.871240 -2.113520 -1.722661 -0.808000 -0.800845 0.000000 0.000000 0.000000 15.097001 0.983432 -2.344225 0.059697 1.455762 -6.425943 -27.601715 -44.294938 -40.105669 8.372105 -77.963809 6.721145 0.000000 0.000000 0.000000 15.982559 1.464714 -2.065675 7.289920 25.129582 16.623864 -36.163239 21.668258 27.856669 1.402168 52.380249 -0.952412 0.000000 0.000000 0.000000 
0.097667 47.315598 -16.018150 0.000000 0.000000 0.000000 41.237633 -1.037819 3.920053 -107.299471 -26.083939 33.886795 127.592004 -9.390426 3.190062 -31.316810 -16.917484 -26.331648 0.000000 0.000000 0.000000 41.422785 -0.364883 2.496127 -133.575237 3.593355 -15.596778 143.352393 2.415426 1.158883 -11.574515 -1.177679 -7.169633 0.000000 0.000000 0.000000 40.666130 -0.387343 3.496941 0.482764 -0.950694 -1.448497 8.380809 1.414127 0.210121 16.182356 1.026523 -2.991643 0.000000 0.000000 0.000000 14.988959 0.754963 -2.250521 -1.889888 -1.018284 -0.817078 0.000000 0.000000 0.000000 14.877347 0.897838 -2.589672 -0.019157 1.793439 -7.504017 -28.128724 -44.790769 -40.091291 6.200857 -77.967852 5.434145 0.000000 0.000000 0.000000 16.005918 1.400078 -2.323767 7.505624 25.566467 16.360835 -35.833262 22.203060 27.994584 1.883769 52.312818 -0.966194 0.000000 0.000000 0.000000 
